<?xml version="1.0" encoding="UTF-8"?>
<svg width="128pt" height="128pt" version="1.1" viewBox="0 0 128 128" xmlns="http://www.w3.org/2000/svg">
 <g fill="#14bfa3">
  <path d="m78.918 102.91c0 3.332-7.0156 6.0312-15.668 6.0312s-15.668-2.6992-15.668-6.0312c0-3.3281 7.0156-6.0312 15.668-6.0312s15.668 2.7031 15.668 6.0312"/>
  <path d="m86.871 19.199h-45.754c-6.0469 0-11.676 5.0742-11.676 11.117v35.227c0 6.0469 5.6289 11.258 11.676 11.258h11.746l11.133 17.852 11.129-17.852h11.746c6.0469 0 10.41-5.2109 10.41-11.258v-35.227c0-6.043-4.3633-11.117-10.41-11.117zm5.2891 46.344c0 3.2227-2.0664 6.1367-5.2891 6.1367h-14.59l-8.2891 13.297-8.2852-13.297h-14.59c-3.2227 0-6.5586-2.9141-6.5586-6.1367v-35.227c0-3.2188 3.3359-5.9961 6.5586-5.9961h45.758c3.2188 0 5.2852 2.7773 5.2852 5.9961z"/>
  <path d="m61.074 36.703c0 6.457-9.6875 6.457-9.6875 0s9.6875-6.457 9.6875 0"/>
  <path d="m74.895 36.703c0 6.457-9.6875 6.457-9.6875 0s9.6875-6.457 9.6875 0"/>
  <path d="m54.398 51.199h-6.0469c1.2773 2.5586 3.3242 5.4023 5.8711 7.1797 0.875 4.5312 4.8672 8.0117 9.6484 8.0117 4.7148 0 8.6641-3.4023 9.6133-7.8359 2.6758-1.7891 4.8203-3.5117 6.1445-7.3516l-6.0273-0.003906zm14.723 5.4023c0 3.3047-2.4531 5.9922-5.7617 5.9922-3.3047 0-5.7617-2.6875-5.7617-5.9922l0.003906-1.5625h11.52z"/>
 </g>
</svg>
